<svg xmlns="http://www.w3.org/2000/svg" viewBox="0 0 64 64" role="img" aria-labelledby="title">
  <title id="title">Student Ambassador Campus Hub</title>
  
  <!-- Outer Rounded Container -->
  <rect x="2" y="2" width="60" height="60" rx="16" fill="#FFFFFF" stroke="#1E293B" stroke-width="4"/>
  
  <!-- 4 Google Colors Petals -->
  <!-- Top: Google Blue (#4285F4) -->
  <path d="M32 8 C38 8 43 13 43 19 C43 27 32 32 32 32 C32 32 21 27 21 19 C21 13 26 8 32 8 Z" fill="#4285F4"/>
  
  <!-- Right: Google Red (#EA4335) -->
  <path d="M56 32 C56 38 51 43 45 43 C37 43 32 32 32 32 C32 32 37 21 45 21 C51 21 56 26 56 32 Z" fill="#EA4335"/>
  
  <!-- Bottom: Google Yellow (#FBBC04) -->
  <path d="M32 56 C26 56 21 51 21 45 C21 37 32 32 32 32 C32 32 43 37 43 45 C43 51 38 56 32 56 Z" fill="#FBBC04"/>
  
  <!-- Left: Google Green (#34A853) -->
  <path d="M8 32 C8 26 13 21 19 21 C27 21 32 32 32 32 C32 32 27 43 19 43 C13 43 8 38 8 32 Z" fill="#34A853"/>
  
  <!-- Center Star / Sparkle in White -->
  <path d="M32 22 Q32 32 42 32 Q32 32 32 42 Q32 32 22 32 Q32 32 32 22 Z" fill="#FFFFFF" stroke="#1E293B" stroke-width="2.5" stroke-linejoin="round"/>
  
  <!-- Central Core -->
  <circle cx="32" cy="32" r="2.5" fill="#4285F4"/>
</svg>
